<?xml version="1.0" standalone="no"?><!DOCTYPE svg PUBLIC "-//W3C//DTD SVG 1.1//EN" "http://www.w3.org/Graphics/SVG/1.1/DTD/svg11.dtd"><svg t="1674741019183" class="icon" viewBox="0 0 1024 1024" version="1.1" xmlns="http://www.w3.org/2000/svg" p-id="1969" xmlns:xlink="http://www.w3.org/1999/xlink" width="200" height="200"><path d="M750.7968 902.5024H314.3168c-79.7184 0-144.384-64.6144-144.384-144.384V264.3456c0-79.7184 64.6144-144.384 144.384-144.384h436.48c79.7184 0 144.384 64.6144 144.384 144.384v493.7728c0 79.7696-64.6656 144.384-144.384 144.384z" fill="#C0DAF9" p-id="1970"></path><path d="M608.8704 122.6752s165.632 21.8624 165.632 141.7216v501.2992c0 30.1568-2.6624 107.8272-132.1472 119.8592 91.9552 0 247.04-2.2528 247.04-123.648V291.4816c0-73.1136 14.6432-170.3424-280.5248-168.8064z" fill="#9EBFEF" p-id="1971"></path><path d="M451.5328 122.6752s-165.632 21.8624-165.632 141.7216v501.2992c0 30.1568 2.6624 107.8272 132.1472 119.8592-91.9552 0-247.04-2.2528-247.04-123.648V291.4816c0-73.1136-14.6432-170.3424 280.5248-168.8064z" fill="#E9F5FF" p-id="1972"></path><path d="M750.7968 928.1024H314.3168c-93.696 0-169.984-76.2368-169.984-169.984V264.3456c0-93.696 76.2368-169.984 169.984-169.984h436.48c93.696 0 169.984 76.2368 169.984 169.984v493.7728c0 93.7472-76.288 169.984-169.984 169.984zM314.3168 145.6128c-65.4848 0-118.784 53.2992-118.784 118.784v493.7728c0 65.4848 53.2992 118.784 118.784 118.784h436.48c65.4848 0 118.784-53.2992 118.784-118.784V264.3456c0-65.4848-53.2992-118.784-118.784-118.784H314.3168z" fill="#434A54" p-id="1973"></path><path d="M223.8464 467.8656H117.5552c-14.1312 0-25.6-11.4688-25.6-25.6s11.4688-25.6 25.6-25.6h106.2912c14.1312 0 25.6 11.4688 25.6 25.6s-11.4688 25.6-25.6 25.6zM223.8464 609.792H117.5552c-14.1312 0-25.6-11.4688-25.6-25.6s11.4688-25.6 25.6-25.6h106.2912c14.1312 0 25.6 11.4688 25.6 25.6s-11.4688 25.6-25.6 25.6z" fill="#434A54" p-id="1974"></path><path d="M540.8256 425.3184m-121.3952 0a121.3952 121.3952 0 1 0 242.7904 0 121.3952 121.3952 0 1 0-242.7904 0Z" fill="#C9C9F4" p-id="1975"></path><path d="M524.6464 404.1728m-57.4464 0a57.4464 57.4464 0 1 0 114.8928 0 57.4464 57.4464 0 1 0-114.8928 0Z" fill="#E6E6FF" p-id="1976"></path><path d="M540.8256 572.2624c-81.0496 0-146.9952-65.9456-146.9952-146.9952s65.9456-146.9952 146.9952-146.9952 146.9952 65.9456 146.9952 146.9952-65.9456 146.9952-146.9952 146.9952z m0-242.7392c-52.7872 0-95.7952 42.9568-95.7952 95.7952s42.9568 95.7952 95.7952 95.7952 95.7952-42.9568 95.7952-95.7952-42.9568-95.7952-95.7952-95.7952z" fill="#434A54" p-id="1977"></path><path d="M717.2608 748.6976c-14.1312 0-25.6-11.4688-25.6-25.6 0-83.1488-67.6352-150.784-150.784-150.784s-150.784 67.6352-150.784 150.784c0 14.1312-11.4688 25.6-25.6 25.6s-25.6-11.4688-25.6-25.6c0-111.36 90.624-201.984 201.984-201.984s201.984 90.624 201.984 201.984c0 14.1312-11.4688 25.6-25.6 25.6z" fill="#434A54" p-id="1978"></path></svg>