<?xml version="1.0" standalone="no"?><!DOCTYPE svg PUBLIC "-//W3C//DTD SVG 1.1//EN" "http://www.w3.org/Graphics/SVG/1.1/DTD/svg11.dtd"><svg t="1674818342857" class="icon" viewBox="0 0 1024 1024" version="1.1" xmlns="http://www.w3.org/2000/svg" p-id="9758" xmlns:xlink="http://www.w3.org/1999/xlink" width="200" height="200"><path d="M265.728 193.92c-28.8 20.096-54.4 42.88-76.8 68.224-22.4 25.472-41.6 52.864-57.6 82.304s-28.16 60.672-36.48 93.696c-8.32 32.896-12.416 66.304-12.416 100.224 0 58.368 11.392 113.152 34.048 164.224 22.784 51.2 53.504 95.744 92.16 133.632 38.784 38.016 84.224 68.096 136.32 90.368C397.056 948.864 452.992 960 512.512 960c58.88 0 114.432-11.136 166.528-33.408 52.224-22.272 97.792-52.352 136.832-90.368 39.04-38.016 69.76-82.56 92.16-133.632 22.4-51.2 33.664-105.856 33.664-164.224 0-33.28-3.968-65.92-12.032-97.92s-19.328-62.464-34.048-91.264c-14.72-28.8-33.024-55.808-54.784-80.896-21.76-25.088-46.08-47.744-72.96-67.712-14.08-9.984-29.312-13.824-45.568-11.264-16.256 2.56-29.568 10.368-39.808 23.552-10.24 13.184-14.08 27.904-11.52 44.288 2.56 16.256 10.624 29.44 24.064 39.552 40.32 28.928 71.168 64.256 92.672 106.368 21.376 41.984 32.128 87.168 32.128 135.552 0 41.344-7.936 80.512-24.064 117.12-16 36.736-37.888 68.736-65.792 96-27.904 27.264-60.544 48.896-97.92 64.896-37.504 16-77.312 23.936-119.552 23.936-42.24 0-82.048-7.936-119.552-23.936-37.504-16-70.144-37.632-97.92-64.896-27.776-27.264-49.92-59.264-66.304-96s-24.448-75.776-24.448-117.12c0-48.896 11.52-95.232 34.56-138.88 23.04-43.648 55.424-79.488 97.024-107.776 14.08-9.472 22.528-22.272 25.472-38.528 2.944-16.256-0.512-31.36-10.112-45.184-9.6-13.184-22.784-21.12-39.424-24.064-16.64-3.072-32 0.256-46.08 9.728z m246.784 347.264c16.64 0 30.848-5.76 42.752-17.408 11.904-11.648 17.792-25.6 17.792-41.856V124.288c0-16.256-5.888-30.464-17.792-42.368S529.152 64 512.512 64c-17.28 0-31.872 6.016-43.648 17.92-11.904 11.904-17.792 25.984-17.792 42.368V481.92c0 16.256 5.888 30.336 17.792 41.856 11.776 11.648 26.368 17.408 43.648 17.408z" p-id="9759"></path></svg>